# xmcd
#
# Track frame offsets: 
#        150
#        18037
#        39977
#        55420
#        71600
#        88157
#        107020
#        127750
#        146377
#        164902
#        180315
#        199965
#        220627
#
# Disc length: 3197 seconds
#
# Revision: 0
# Processed by: cddbd v1.5.1PL0 Copyright (c) Steve Scherf et al.
# Submitted via: ExactAudioCopy v0.95a5
#
DISCID=af0c7b0d
DTITLE=Brian Smith - The Moonlight Sax Collection CD1
DYEAR=1993
DGENRE=Blues
TTITLE0=Songbird
TTITLE1=Summertime
TTITLE2=Moonlighting Theme
TTITLE3=Beauty And The Beast
TTITLE4=Whats New
TTITLE5=Stardust
TTITLE6=New York State Of Mind
TTITLE7=Misty
TTITLE8=Just The Two Of Us
TTITLE9=Tears In Heaven
TTITLE10=On The Beach
TTITLE11=Someone To Watch Over Me
TTITLE12=Medley -Careless Whisper-Italian Restaurant-Songbird-Baker St
TTITLE12=reet)
EXTD=
EXTT0=
EXTT1=
EXTT2=
EXTT3=
EXTT4=
EXTT5=
EXTT6=
EXTT7=
EXTT8=
EXTT9=
EXTT10=
EXTT11=
EXTT12=
PLAYORDER=
